<?xml version="1.0" standalone="no"?>
<!DOCTYPE svg PUBLIC "-//W3C//DTD SVG 20010904//EN"
 "http://www.w3.org/TR/2001/REC-SVG-20010904/DTD/svg10.dtd">
<svg version="1.0" xmlns="http://www.w3.org/2000/svg"
 width="300.000000pt" height="100.000000pt" viewBox="0 0 300.000000 100.000000"
 preserveAspectRatio="xMidYMid meet">
<metadata>
Created by potrace 1.10, written by Peter Selinger 2001-2011
</metadata>
<g transform="translate(0.000000,100.000000) scale(0.100000,-0.100000)"
fill="#000000" stroke="none">
<path d="M60 960 c12 -23 37 -59 57 -81 37 -41 39 -67 3 -34 -11 10 -20 14
-20 9 0 -4 11 -17 24 -29 14 -11 27 -35 31 -52 6 -32 6 -33 -29 -33 -29 0 -40
7 -72 48 -54 68 -54 67 -54 55 0 -5 19 -31 42 -57 44 -50 41 -66 -9 -66 -38 0
-29 -36 14 -60 21 -11 49 -27 63 -36 l25 -16 -23 20 -23 21 36 7 c44 8 54 0
32 -24 -24 -26 -22 -31 20 -48 71 -30 205 4 247 63 11 14 15 24 10 20 -6 -3
-8 8 -6 29 2 19 8 37 14 40 5 3 6 -5 2 -20 -5 -21 -3 -25 10 -20 10 4 16 18
16 35 0 16 12 47 26 68 46 70 72 201 40 201 -13 0 -26 -41 -26 -81 0 -34 -53
-160 -62 -146 -12 19 -10 49 3 41 7 -4 10 -1 7 6 -7 22 -26 22 -33 1 -3 -12
-11 -21 -16 -21 -6 0 -8 4 -5 9 4 5 0 11 -6 14 -10 3 -8 8 4 18 38 30 60 139
29 139 -5 0 -25 -18 -45 -40 -34 -38 -68 -51 -81 -31 -3 6 -30 8 -61 7 -55 -4
-55 -4 -85 40 -16 24 -32 44 -35 44 -9 0 18 -45 43 -71 13 -14 23 -32 21 -39
-2 -9 9 -16 27 -19 22 -5 35 0 54 17 17 15 28 19 35 12 5 -5 22 -10 37 -10 15
0 33 -7 40 -17 13 -15 11 -16 -13 -11 -17 3 -32 0 -40 -9 -9 -11 -13 -11 -19
-1 -5 7 -9 8 -9 2 0 -5 7 -19 15 -30 10 -13 13 -14 10 -3 -3 9 2 22 11 30 15
12 16 12 10 -9 -6 -17 -3 -27 10 -37 15 -11 16 -15 5 -29 -7 -9 -22 -16 -32
-16 -22 0 -50 37 -42 56 3 8 0 14 -7 14 -6 0 -8 -4 -5 -10 3 -5 -2 -10 -12
-10 -15 0 -16 -2 -3 -11 12 -8 10 -9 -7 -4 -19 5 -23 2 -23 -14 0 -14 -6 -21
-20 -21 -25 0 -25 7 -2 34 12 15 13 17 1 9 -21 -17 -39 1 -39 39 0 19 -4 26
-14 22 -8 -3 -31 21 -61 65 -27 39 -50 71 -52 71 -2 0 6 -18 17 -40z m350
-215 c-13 -14 -18 -25 -12 -25 7 0 12 -5 12 -10 0 -6 -7 -6 -18 1 -10 7 -19
18 -19 25 0 7 3 11 7 9 4 -3 15 4 25 15 10 11 21 18 23 15 3 -3 -5 -16 -18
-30z m-147 -13 c-3 -12 6 -29 26 -47 16 -16 27 -33 24 -39 -4 -5 1 -7 10 -3
10 3 17 2 17 -4 0 -26 -131 -41 -146 -17 -4 6 -2 14 4 16 7 2 2 14 -13 30 -27
29 -31 42 -14 42 5 0 7 5 4 10 -4 6 6 10 24 10 16 0 33 5 36 10 11 18 33 11
28 -8z m84 -18 c7 -7 18 -15 25 -17 9 -4 7 -10 -7 -22 -19 -15 -20 -15 -23 2
-2 11 -17 24 -33 30 -17 7 -28 16 -25 22 7 11 46 2 63 -15z"/>
<path d="M0 951 c0 -19 83 -132 113 -153 27 -19 24 -13 -16 32 -27 30 -57 71
-68 92 -19 37 -29 47 -29 29z"/>
<path d="M619 883 c-7 -18 -6 -30 1 -37 15 -15 12 -62 -5 -76 -14 -12 -34 -11
-98 5 -22 6 -24 4 -20 -19 3 -14 0 -33 -8 -42 -7 -8 -13 -27 -14 -41 0 -16
-17 -41 -48 -69 -39 -38 -51 -44 -77 -39 -22 4 -30 1 -30 -10 0 -19 -34 -37
-46 -25 -6 6 -29 11 -53 13 -29 2 -48 9 -58 22 -13 17 -15 17 -10 3 4 -10 3
-18 -1 -18 -12 0 -83 49 -122 84 -25 23 -29 25 -15 6 35 -43 59 -61 123 -91
34 -16 62 -33 62 -38 0 -4 13 -28 29 -52 21 -31 26 -46 18 -51 -9 -6 -8 -8 1
-8 19 0 72 -58 58 -63 -6 -2 8 -7 32 -10 39 -7 50 -16 36 -29 -11 -11 -122 33
-194 78 -40 24 -75 43 -77 40 -12 -12 151 -102 214 -118 24 -6 43 -13 43 -17
0 -3 -18 -30 -40 -59 -46 -60 -49 -72 -17 -72 31 0 49 14 42 32 -4 9 6 33 22
57 31 44 67 55 78 22 5 -18 88 -81 106 -81 9 0 39 40 39 52 0 5 -15 16 -34 25
-37 17 -67 63 -41 63 7 0 26 11 42 24 l28 24 23 -34 c29 -44 78 -70 98 -53 22
18 17 54 -10 67 -44 20 -71 68 -72 127 0 42 -9 71 -40 132 -21 43 -40 81 -42
86 -2 4 20 7 50 7 29 0 58 4 65 8 21 13 33 61 26 107 -7 51 0 54 50 28 29 -15
31 -15 18 0 -7 9 -28 19 -46 23 -21 4 -35 13 -38 25 -7 28 -36 23 -48 -8z m49
-71 c3 -54 1 -72 -13 -85 -23 -24 -65 -21 -100 7 l-30 24 50 -1 c45 -2 50 0
63 27 11 23 12 34 3 48 -12 20 -15 51 -4 62 15 15 28 -18 31 -82z m-118 -216
c8 -21 7 -28 -5 -32 -33 -13 -56 35 -39 81 6 14 8 14 20 -4 8 -10 18 -31 24
-45z m-104 -122 c-8 -37 -12 -73 -9 -80 2 -6 -5 -30 -16 -52 -15 -30 -17 -42
-8 -45 9 -4 9 -6 0 -6 -23 -2 -24 20 -2 58 22 39 22 39 2 73 -24 41 -72 59
-130 49 -37 -7 -42 -6 -56 18 l-16 27 32 -4 c39 -4 131 29 172 62 l30 24 8
-28 c4 -16 1 -56 -7 -96z m60 55 c4 -7 25 -9 55 -7 l49 5 0 -40 c0 -30 -6 -44
-25 -59 -14 -11 -35 -37 -45 -59 -11 -21 -27 -39 -35 -39 -10 0 -15 -11 -15
-33 0 -29 4 -34 41 -47 46 -17 52 -28 26 -44 -15 -9 -22 -6 -42 17 -13 15 -28
27 -33 27 -5 0 -19 11 -31 24 -24 26 -24 31 10 145 10 35 19 76 19 92 0 29 13
38 26 18z m-129 -121 c19 -16 16 -48 -5 -48 -17 0 -72 44 -72 59 0 23 44 17
77 -11z m332 -94 c1 -1 0 -7 -4 -13 -10 -17 -37 -13 -65 9 l-25 19 45 -6 c25
-3 47 -7 49 -9z"/>
<path d="M1003 830 c-50 -20 -52 -34 -53 -345 0 -160 -1 -298 0 -307 0 -19 56
-88 71 -88 5 0 4 12 -2 28 -16 41 -1 588 17 624 14 27 30 35 89 40 l30 3 -40
21 c-52 27 -85 34 -112 24z"/>
<path d="M1447 816 c-9 -7 -25 -38 -36 -67 -27 -78 -98 -216 -117 -227 -20
-11 -13 -53 15 -96 l19 -28 43 73 c44 76 119 235 119 255 0 21 37 45 81 52
l44 8 -35 22 c-40 25 -105 29 -133 8z"/>
<path d="M1070 721 c-5 -11 -10 -39 -10 -63 0 -39 4 -45 32 -58 29 -13 33 -20
34 -60 1 -38 -5 -51 -33 -83 l-33 -37 0 -118 c0 -64 -3 -128 -7 -141 -5 -21
-4 -22 15 -12 13 7 23 7 27 2 3 -6 19 -16 35 -25 l30 -14 0 38 c0 30 -5 40
-19 45 -21 6 -36 39 -33 66 2 9 -2 27 -7 41 -10 27 4 49 39 60 10 3 14 17 12
49 l-3 44 40 -74 c44 -82 72 -116 114 -138 26 -13 30 -13 42 4 8 10 17 37 21
61 5 34 16 51 61 92 49 45 59 52 79 49 3 0 12 8 19 18 12 16 13 10 8 -39 -5
-54 -4 -58 16 -58 16 0 21 -6 21 -24 0 -14 5 -28 10 -31 16 -10 1 -77 -21 -97
-24 -21 -27 -109 -4 -128 13 -10 15 -9 15 8 0 12 5 24 11 28 6 3 17 22 25 40
8 19 19 34 24 34 6 0 10 45 10 111 0 110 0 110 -30 138 -20 17 -28 33 -25 43
4 9 2 19 -4 23 -16 9 -13 41 4 55 9 7 13 21 10 31 -4 11 2 25 14 36 23 19 28
72 9 91 -18 18 -56 14 -78 -8 -20 -20 -22 -61 -5 -103 11 -25 -20 -67 -50 -67
-19 0 -30 -10 -46 -42 -61 -120 -129 -203 -129 -157 0 5 -4 8 -9 5 -10 -7 -81
21 -82 32 -5 36 -4 94 2 103 11 19 -21 102 -47 122 -13 10 -24 24 -24 32 0 7
-7 18 -16 26 -10 8 -14 23 -12 41 4 24 1 28 -18 28 -13 0 -28 -9 -34 -19z"/>
<path d="M1850 664 c-59 -12 -91 -27 -119 -60 -17 -19 -35 -34 -41 -34 -8 0
-10 -60 -8 -199 l3 -200 32 -33 c18 -18 47 -42 65 -52 l33 -19 -37 39 c-57 60
-78 115 -78 207 0 44 6 92 14 111 24 57 103 152 143 172 55 26 164 24 222 -4
55 -27 59 -27 37 -3 -43 48 -190 89 -266 75z"/>
<path d="M2346 656 c-40 -11 -61 -26 -100 -70 -28 -31 -56 -56 -63 -56 -8 0
-3 -19 12 -52 14 -29 25 -63 25 -76 0 -32 16 -19 24 18 6 32 47 89 103 146 24
23 49 36 88 44 71 15 126 6 195 -32 l55 -30 -28 30 c-65 69 -212 106 -311 78z"/>
<path d="M2 559 c3 -43 5 -45 63 -76 100 -54 139 -73 155 -72 10 0 11 2 2 6
-6 2 -10 9 -6 14 3 5 0 9 -6 9 -6 0 -8 5 -5 10 3 6 1 10 -5 10 -6 0 -9 4 -6 8
3 5 -8 7 -23 4 -38 -5 -97 21 -104 47 -3 11 -4 21 -2 21 1 0 22 -7 45 -15 23
-8 52 -15 64 -14 24 1 21 2 -56 23 -31 9 -71 28 -88 43 l-31 26 3 -44z"/>
<path d="M1924 573 c-34 -4 -44 -22 -44 -80 0 -30 -8 -38 -34 -34 -4 1 -14 -3
-21 -9 -7 -6 -19 -8 -26 -5 -23 8 -43 -11 -34 -31 5 -11 9 -47 11 -82 2 -52
-1 -64 -18 -76 -19 -14 -19 -14 0 -52 26 -50 67 -89 114 -108 43 -18 131 -21
176 -5 26 9 30 15 29 45 -1 27 6 40 31 62 17 15 32 38 34 52 2 14 12 29 26 35
18 8 22 18 22 51 0 86 -51 179 -118 213 -41 21 -101 30 -148 24z m125 -77 c7
-8 20 -12 31 -9 14 4 22 -2 31 -23 6 -16 15 -37 20 -47 7 -13 3 -23 -14 -41
-15 -15 -26 -41 -30 -70 -9 -61 -32 -104 -65 -119 -14 -7 -40 -27 -57 -45 -30
-33 -30 -33 -61 -17 -31 15 -53 51 -55 90 -6 150 -5 159 21 165 19 4 26 13 28
35 5 40 29 65 62 65 15 0 33 7 40 15 16 19 34 19 49 1z"/>
<path d="M1950 431 c0 -5 7 -14 15 -21 23 -19 20 -95 -5 -120 -23 -23 -33 -24
-61 -10 -29 16 -25 -15 7 -47 21 -21 32 -24 62 -20 46 8 61 24 73 76 10 44 5
79 -18 124 -10 20 -21 27 -43 27 -17 0 -30 -4 -30 -9z"/>
<path d="M2460 573 c-14 -2 -37 -9 -51 -14 -25 -10 -26 -13 -15 -41 10 -27 9
-32 -17 -52 -16 -13 -25 -28 -22 -37 7 -17 -56 -79 -81 -79 -15 0 -16 -7 -10
-56 10 -90 54 -157 128 -195 48 -25 52 -24 67 7 9 21 14 24 26 14 10 -9 19 -9
28 -2 6 5 38 9 69 7 55 -4 59 -2 87 32 16 19 35 55 41 79 16 55 8 154 -15 212
-19 46 -25 48 -92 27 -18 -6 -23 -2 -29 19 -4 18 -15 28 -38 34 -21 6 -32 15
-34 30 -2 12 -6 21 -10 21 -4 -1 -18 -4 -32 -6z m113 -123 c14 -16 28 -39 32
-50 3 -11 15 -20 26 -20 15 0 19 -7 19 -30 0 -17 5 -38 11 -48 19 -31 -2 -76
-36 -80 -16 -2 -42 -13 -58 -24 -34 -24 -97 -34 -125 -19 -15 8 -21 8 -24 -1
-2 -6 -16 -12 -31 -14 -21 -2 -29 4 -41 28 -9 17 -13 34 -11 39 3 4 0 17 -7
28 -11 18 -9 24 14 48 14 15 28 37 30 48 2 11 14 22 28 25 19 4 26 13 28 35 5
46 29 65 78 65 35 0 47 -5 67 -30z"/>
<path d="M2480 433 c0 -5 7 -17 15 -27 28 -37 13 -119 -24 -131 -11 -3 -29 -1
-41 5 -30 16 -27 -14 5 -45 28 -29 54 -31 95 -10 33 17 41 36 42 103 0 69 -24
112 -62 112 -17 0 -30 -3 -30 -7z"/>
<path d="M228 383 c6 -2 12 -11 12 -18 0 -13 22 -25 43 -25 7 1 1 7 -13 15
-14 8 -20 15 -15 15 6 0 3 5 -5 10 -8 5 -19 9 -25 9 -5 0 -4 -3 3 -6z"/>
<path d="M1455 269 c-40 -53 -40 -55 -27 -95 7 -23 27 -55 45 -72 l32 -31 -3
97 c-5 172 -1 164 -47 101z"/>
<path d="M1197 261 c2 -10 16 -24 30 -30 l25 -11 -24 29 c-27 35 -38 39 -31
12z"/>
<path d="M2216 215 c-8 -39 -6 -41 44 -87 66 -61 84 -62 31 -2 -23 26 -41 52
-41 58 -1 6 -7 25 -14 41 l-13 30 -7 -40z"/>
</g>
</svg>
